name rise36.2859peak64.2979fall75.1499.mot
datacolumns 19
datarows 66
range 6.249974 6.358312
endheader
time	ground_force1_vx	ground_force1_vy	ground_force1_vz	ground_force1_px	ground_force1_py	ground_force1_pz	ground_force2_vx	ground_force2_vy	ground_force2_vz	ground_force2_px	ground_force2_py	ground_force2_pz	ground_torque1_x	ground_torque1_y	ground_torque1_z	ground_torque2_x	ground_torque2_y	ground_torque2_z	
6.249974	0.000000	0.000000	0.000000	0.000000	0.000000	0.000000	60.063849	800.492391	-56.093042	0.419147	0.000000	-0.111418	0.000000	0.000000	0.000000	0.000000	-31.844742	0.000000	
6.251640	0.000000	0.000000	0.000000	0.000000	0.000000	0.000000	59.662659	802.265383	-56.336561	0.418673	0.000000	-0.111379	0.000000	0.000000	0.000000	0.000000	-32.071351	0.000000	
6.253306	0.000000	0.000000	0.000000	0.000000	0.000000	0.000000	59.250609	803.868065	-56.573777	0.418226	0.000000	-0.111339	0.000000	0.000000	0.000000	0.000000	-32.297158	0.000000	
6.254991	0.000000	0.000000	0.000000	0.000000	0.000000	0.000000	58.827896	805.300691	-56.803929	0.417802	0.000000	-0.111295	0.000000	0.000000	0.000000	0.000000	-32.521439	0.000000	
6.256639	0.000000	0.000000	0.000000	0.000000	0.000000	0.000000	58.394729	806.563887	-57.026268	0.417402	0.000000	-0.111250	0.000000	0.000000	0.000000	0.000000	-32.743470	0.000000	
6.258308	0.000000	0.000000	0.000000	0.000000	0.000000	0.000000	57.951339	807.658649	-57.240063	0.417022	0.000000	-0.111202	0.000000	0.000000	0.000000	0.000000	-32.962528	0.000000	
6.259977	0.000000	0.000000	0.000000	0.000000	0.000000	0.000000	57.497968	808.586336	-57.444599	0.416660	0.000000	-0.111153	0.000000	0.000000	0.000000	0.000000	-33.177900	0.000000	
6.261645	0.000000	0.000000	0.000000	0.000000	0.000000	0.000000	57.034879	809.348667	-57.639190	0.416316	0.000000	-0.111101	0.000000	0.000000	0.000000	0.000000	-33.388881	0.000000	
6.263314	0.000000	0.000000	0.000000	0.000000	0.000000	0.000000	56.562347	809.947708	-57.823174	0.415986	0.000000	-0.111047	0.000000	0.000000	0.000000	0.000000	-33.594780	0.000000	
6.264973	0.000000	0.000000	0.000000	0.000000	0.000000	0.000000	56.080663	810.385863	-57.995922	0.415669	0.000000	-0.110991	0.000000	0.000000	0.000000	0.000000	-33.794924	0.000000	
6.266640	0.000000	0.000000	0.000000	0.000000	0.000000	0.000000	55.590130	810.665866	-58.156840	0.415363	0.000000	-0.110933	0.000000	0.000000	0.000000	0.000000	-33.988661	0.000000	
6.268306	0.000000	0.000000	0.000000	0.000000	0.000000	0.000000	55.091066	810.790768	-58.305371	0.415065	0.000000	-0.110873	0.000000	0.000000	0.000000	0.000000	-34.175362	0.000000	
6.269989	0.000000	0.000000	0.000000	0.000000	0.000000	0.000000	54.583799	810.763922	-58.440999	0.414773	0.000000	-0.110811	0.000000	0.000000	0.000000	0.000000	-34.354423	0.000000	
6.271644	0.000000	0.000000	0.000000	0.000000	0.000000	0.000000	54.068669	810.588975	-58.563251	0.414486	0.000000	-0.110748	0.000000	0.000000	0.000000	0.000000	-34.525270	0.000000	
6.273308	0.000000	0.000000	0.000000	0.000000	0.000000	0.000000	53.546026	810.269846	-58.671700	0.414201	0.000000	-0.110683	0.000000	0.000000	0.000000	0.000000	-34.687363	0.000000	
6.274989	0.000000	0.000000	0.000000	0.000000	0.000000	0.000000	53.016227	809.810714	-58.765966	0.413916	0.000000	-0.110616	0.000000	0.000000	0.000000	0.000000	-34.840193	0.000000	
6.276642	0.000000	0.000000	0.000000	0.000000	0.000000	0.000000	52.479640	809.216004	-58.845719	0.413629	0.000000	-0.110548	0.000000	0.000000	0.000000	0.000000	-34.983288	0.000000	
6.278305	0.000000	0.000000	0.000000	0.000000	0.000000	0.000000	51.936635	808.490365	-58.910679	0.413337	0.000000	-0.110478	0.000000	0.000000	0.000000	0.000000	-35.116215	0.000000	
6.279990	0.000000	0.000000	0.000000	0.000000	0.000000	0.000000	51.387593	807.638659	-58.960619	0.413039	0.000000	-0.110407	0.000000	0.000000	0.000000	0.000000	-35.238581	0.000000	
6.281643	0.000000	0.000000	0.000000	0.000000	0.000000	0.000000	50.832894	806.665935	-58.995362	0.412733	0.000000	-0.110334	0.000000	0.000000	0.000000	0.000000	-35.350034	0.000000	
6.283310	0.000000	0.000000	0.000000	0.000000	0.000000	0.000000	50.272926	805.577419	-59.014787	0.412416	0.000000	-0.110261	0.000000	0.000000	0.000000	0.000000	-35.450264	0.000000	
6.284974	0.000000	0.000000	0.000000	0.000000	0.000000	0.000000	49.708078	804.378489	-59.018825	0.412086	0.000000	-0.110186	0.000000	0.000000	0.000000	0.000000	-35.539006	0.000000	
6.286645	0.000000	0.000000	0.000000	0.000000	0.000000	0.000000	49.138738	803.074660	-59.007460	0.411742	0.000000	-0.110111	0.000000	0.000000	0.000000	0.000000	-35.616036	0.000000	
6.288313	0.000000	0.000000	0.000000	0.000000	0.000000	0.000000	48.565298	801.671562	-58.980730	0.411380	0.000000	-0.110035	0.000000	0.000000	0.000000	0.000000	-35.681179	0.000000	
6.289980	0.000000	0.000000	0.000000	0.000000	0.000000	0.000000	47.988147	800.174925	-58.938723	0.411000	0.000000	-0.109958	0.000000	0.000000	0.000000	0.000000	-35.734302	0.000000	
6.291643	0.000000	0.000000	0.000000	0.000000	0.000000	0.000000	47.407673	798.590557	-58.881581	0.410599	0.000000	-0.109880	0.000000	0.000000	0.000000	0.000000	-35.775319	0.000000	
6.293309	0.000000	0.000000	0.000000	0.000000	0.000000	0.000000	46.824261	796.924324	-58.809493	0.410176	0.000000	-0.109802	0.000000	0.000000	0.000000	0.000000	-35.804186	0.000000	
6.294980	0.000000	0.000000	0.000000	0.000000	0.000000	0.000000	46.238294	795.182135	-58.722699	0.409728	0.000000	-0.109724	0.000000	0.000000	0.000000	0.000000	-35.820905	0.000000	
6.296640	0.000000	0.000000	0.000000	0.000000	0.000000	0.000000	45.650147	793.369921	-58.621484	0.409255	0.000000	-0.109646	0.000000	0.000000	0.000000	0.000000	-35.825522	0.000000	
6.298313	0.000000	0.000000	0.000000	0.000000	0.000000	0.000000	45.060193	791.493619	-58.506178	0.408753	0.000000	-0.109567	0.000000	0.000000	0.000000	0.000000	-35.818125	0.000000	
6.299978	0.000000	0.000000	0.000000	0.000000	0.000000	0.000000	44.468796	789.559151	-58.377153	0.408223	0.000000	-0.109489	0.000000	0.000000	0.000000	0.000000	-35.798843	0.000000	
6.301645	0.000000	0.000000	0.000000	0.000000	0.000000	0.000000	43.876316	787.572409	-58.234823	0.407661	0.000000	-0.109411	0.000000	0.000000	0.000000	0.000000	-35.767845	0.000000	
6.303313	0.000000	0.000000	0.000000	0.000000	0.000000	0.000000	43.283101	785.539239	-58.079637	0.407068	0.000000	-0.109333	0.000000	0.000000	0.000000	0.000000	-35.725341	0.000000	
6.304977	0.000000	0.000000	0.000000	0.000000	0.000000	0.000000	42.689491	783.465423	-57.912079	0.406441	0.000000	-0.109256	0.000000	0.000000	0.000000	0.000000	-35.671576	0.000000	
6.306640	0.000000	0.000000	0.000000	0.000000	0.000000	0.000000	42.095819	781.356666	-57.732667	0.405779	0.000000	-0.109179	0.000000	0.000000	0.000000	0.000000	-35.606830	0.000000	
6.308310	0.000000	0.000000	0.000000	0.000000	0.000000	0.000000	41.502403	779.218577	-57.541946	0.405082	0.000000	-0.109103	0.000000	0.000000	0.000000	0.000000	-35.531419	0.000000	
6.309980	0.000000	0.000000	0.000000	0.000000	0.000000	0.000000	40.909552	777.056659	-57.340485	0.404347	0.000000	-0.109029	0.000000	0.000000	0.000000	0.000000	-35.445688	0.000000	
6.311644	0.000000	0.000000	0.000000	0.000000	0.000000	0.000000	40.317563	774.876293	-57.128879	0.403576	0.000000	-0.108955	0.000000	0.000000	0.000000	0.000000	-35.350010	0.000000	
6.313305	0.000000	0.000000	0.000000	0.000000	0.000000	0.000000	39.726719	772.682728	-56.907739	0.402766	0.000000	-0.108882	0.000000	0.000000	0.000000	0.000000	-35.244789	0.000000	
6.314977	0.000000	0.000000	0.000000	0.000000	0.000000	0.000000	39.137291	770.481068	-56.677693	0.401917	0.000000	-0.108811	0.000000	0.000000	0.000000	0.000000	-35.130448	0.000000	
6.316639	0.000000	0.000000	0.000000	0.000000	0.000000	0.000000	38.549534	768.276258	-56.439382	0.401028	0.000000	-0.108741	0.000000	0.000000	0.000000	0.000000	-35.007437	0.000000	
6.318311	0.000000	0.000000	0.000000	0.000000	0.000000	0.000000	37.963690	766.073080	-56.193456	0.400100	0.000000	-0.108673	0.000000	0.000000	0.000000	0.000000	-34.876220	0.000000	
6.319986	0.000000	0.000000	0.000000	0.000000	0.000000	0.000000	37.379985	763.876139	-55.940570	0.399133	0.000000	-0.108606	0.000000	0.000000	0.000000	0.000000	-34.737282	0.000000	
6.321640	0.000000	0.000000	0.000000	0.000000	0.000000	0.000000	36.798632	761.689859	-55.681382	0.398125	0.000000	-0.108541	0.000000	0.000000	0.000000	0.000000	-34.591120	0.000000	
6.323308	0.000000	0.000000	0.000000	0.000000	0.000000	0.000000	36.219825	759.518469	-55.416551	0.397077	0.000000	-0.108478	0.000000	0.000000	0.000000	0.000000	-34.438242	0.000000	
6.324987	0.000000	0.000000	0.000000	0.000000	0.000000	0.000000	35.643745	757.366004	-55.146730	0.395989	0.000000	-0.108417	0.000000	0.000000	0.000000	0.000000	-34.279165	0.000000	
6.326640	0.000000	0.000000	0.000000	0.000000	0.000000	0.000000	35.070556	755.236296	-54.872569	0.394863	0.000000	-0.108358	0.000000	0.000000	0.000000	0.000000	-34.114412	0.000000	
6.328313	0.000000	0.000000	0.000000	0.000000	0.000000	0.000000	34.500405	753.132968	-54.594705	0.393697	0.000000	-0.108302	0.000000	0.000000	0.000000	0.000000	-33.944511	0.000000	
6.329973	0.000000	0.000000	0.000000	0.000000	0.000000	0.000000	33.933424	751.059434	-54.313765	0.392493	0.000000	-0.108247	0.000000	0.000000	0.000000	0.000000	-33.769988	0.000000	
6.331641	0.000000	0.000000	0.000000	0.000000	0.000000	0.000000	33.369729	749.018892	-54.030363	0.391252	0.000000	-0.108195	0.000000	0.000000	0.000000	0.000000	-33.591370	0.000000	
6.333305	0.000000	0.000000	0.000000	0.000000	0.000000	0.000000	32.809421	747.014325	-53.745094	0.389974	0.000000	-0.108145	0.000000	0.000000	0.000000	0.000000	-33.409179	0.000000	
6.334977	0.000000	0.000000	0.000000	0.000000	0.000000	0.000000	32.252582	745.048498	-53.458536	0.388661	0.000000	-0.108097	0.000000	0.000000	0.000000	0.000000	-33.223932	0.000000	
6.336640	0.000000	0.000000	0.000000	0.000000	0.000000	0.000000	31.699281	743.123960	-53.171243	0.387314	0.000000	-0.108052	0.000000	0.000000	0.000000	0.000000	-33.036138	0.000000	
6.338310	0.000000	0.000000	0.000000	0.000000	0.000000	0.000000	31.149573	741.243041	-52.883751	0.385933	0.000000	-0.108009	0.000000	0.000000	0.000000	0.000000	-32.846294	0.000000	
6.339989	0.000000	0.000000	0.000000	0.000000	0.000000	0.000000	30.603495	739.407855	-52.596569	0.384521	0.000000	-0.107969	0.000000	0.000000	0.000000	0.000000	-32.654888	0.000000	
6.341646	0.000000	0.000000	0.000000	0.000000	0.000000	0.000000	30.061072	737.620304	-52.310180	0.383079	0.000000	-0.107931	0.000000	0.000000	0.000000	0.000000	-32.462393	0.000000	
6.343308	0.000000	0.000000	0.000000	0.000000	0.000000	0.000000	29.522315	735.882076	-52.025042	0.381609	0.000000	-0.107895	0.000000	0.000000	0.000000	0.000000	-32.269268	0.000000	
6.344986	0.000000	0.000000	0.000000	0.000000	0.000000	0.000000	28.987219	734.194652	-51.741585	0.380112	0.000000	-0.107862	0.000000	0.000000	0.000000	0.000000	-32.075955	0.000000	
6.346639	0.000000	0.000000	0.000000	0.000000	0.000000	0.000000	28.455770	732.559310	-51.460208	0.378590	0.000000	-0.107832	0.000000	0.000000	0.000000	0.000000	-31.882879	0.000000	
6.348306	0.000000	0.000000	0.000000	0.000000	0.000000	0.000000	27.927939	730.977126	-51.181285	0.377045	0.000000	-0.107803	0.000000	0.000000	0.000000	0.000000	-31.690447	0.000000	
6.349988	0.000000	0.000000	0.000000	0.000000	0.000000	0.000000	27.403687	729.448983	-50.905158	0.375479	0.000000	-0.107777	0.000000	0.000000	0.000000	0.000000	-31.499046	0.000000	
6.351644	0.000000	0.000000	0.000000	0.000000	0.000000	0.000000	26.882962	727.975575	-50.632140	0.373894	0.000000	-0.107754	0.000000	0.000000	0.000000	0.000000	-31.309044	0.000000	
6.353310	0.000000	0.000000	0.000000	0.000000	0.000000	0.000000	26.365705	726.557414	-50.362514	0.372293	0.000000	-0.107732	0.000000	0.000000	0.000000	0.000000	-31.120787	0.000000	
6.354974	0.000000	0.000000	0.000000	0.000000	0.000000	0.000000	25.851847	725.194835	-50.096535	0.370677	0.000000	-0.107713	0.000000	0.000000	0.000000	0.000000	-30.934601	0.000000	
6.356644	0.000000	0.000000	0.000000	0.000000	0.000000	0.000000	25.341309	723.888004	-49.834427	0.369048	0.000000	-0.107696	0.000000	0.000000	0.000000	0.000000	-30.750792	0.000000	
6.358312	0.000000	0.000000	0.000000	0.000000	0.000000	0.000000	24.834006	722.636928	-49.576388	0.367410	0.000000	-0.107680	0.000000	0.000000	0.000000	0.000000	-30.569642	0.000000	
